<svg xmlns="http://www.w3.org/2000/svg" viewBox="0 0 16 16"><path fill="#333333" d="m8.943 12.05-.002.002c-.73.351-1.465.231-2.204-.105-.252-.114-.532-.083-.713.077a.47.47 0 0 0-.162.339.55.55 0 0 0 .146.377c.479.552 1.198.91 1.954.923.827.035 1.596-.417 2.027-1.07a.54.54 0 0 0 .096-.383.45.45 0 0 0-.202-.31c-.198-.13-.473-.117-.7.02q-.12.075-.24.13"></path><path fill="#333333" fill-rule="evenodd" d="M.893 3.951c-.06.196-.204.817-.204 1.655-.126.729-.078 1.454-.126 2.712l-.06 1.56c-.096 2.547 1.752 5.313 4.276 5.663 1.938.269 3.904.278 5.844.028l.218-.028c.24-.03.383-.049.509-.072 2.335-.424 4.043-3.002 4.074-5.374.002-.128-.003-.272-.012-.514l-.05-1.288c-.027-.722-.048-1.283-.097-1.75l.006-.142c.03-.65.023-.743-.05-1.17a5.6 5.6 0 0 0-.506-1.518c-.274-.521-.719-1.054-1.407-1.054l-.187-.193c-1.495-1.55-2.192-1.895-5.407-2.209-1.825-.057-2.68.23-3.804.78-1.071.523-2.162 1.245-2.551 1.778-.277.378-.376.838-.466 1.136m9.726.323c.711.067 1.364.129 1.883.05 0 0 .283.783.976 1.479l.224.22c.153.15.285.277.392.407q.025.183.044.412a2.3 2.3 0 0 0-.71-.201c-1.064-.076-1.896.336-2.747.758-.818.405-1.654.82-2.73.82-1.075 0-1.911-.415-2.729-.82-.851-.422-1.683-.834-2.746-.758a2.3 2.3 0 0 0-.686.189c.035-.411.083-.694.165-.943a3.8 3.8 0 0 1 1.178-1.735q.107-.044.223-.079l.413.015c-.05 1.316.268 2.192.46 2.247.156.044.378-.256.672-.654.105-.142.22-.297.344-.453.147-.186.511-.456 1.002-.738.092.668.28 1.08.408 1.116.157.045.379-.256.672-.653.106-.143.22-.298.344-.454q.145-.181.379-.334h.089c.275 0 .577.003.893.005.54.004 1.078.055 1.587.104m-8.657 7.426c.514 1.351 1.617 2.514 2.975 2.702 1.837.255 3.7.264 5.54.027l.197-.026c.266-.034.47-.065.47-.065 1.27-.23 2.299-1.356 2.8-2.64a3 3 0 0 1-.755.3c-.685.17-1.63-.077-2.678-.626-.364-.19-.643-.414-.904-.623-.475-.382-.89-.716-1.655-.716s-1.181.334-1.656.716c-.261.21-.54.433-.904.623-1.048.55-1.992.797-2.678.625a3 3 0 0 1-.752-.297m1.835-1.137a1.244 1.244 0 1 0 0-2.489 1.244 1.244 0 0 0 0 2.489m6.9-1.245a1.245 1.245 0 1 0 2.49 0 1.245 1.245 0 0 0-2.49 0"></path></svg>